<svg xmlns="http://www.w3.org/2000/svg" width="1200" height="680">
  <rect x="0" y="0" width="1200" height="680" fill="#ffffff"/>
  <text x="24" y="40" font-size="24" font-family="Arial" fill="#111827">Drilldown Cards (Example)</text>
  <rect x="24" y="64" width="360" height="540" fill="#ffffff" stroke="#e5e7eb"/>
  <rect x="420" y="64" width="360" height="540" fill="#ffffff" stroke="#e5e7eb"/>
  <rect x="816" y="64" width="360" height="540" fill="#ffffff" stroke="#e5e7eb"/>
  <text x="48" y="96" font-family="Arial" font-size="16" fill="#111827">Risk</text>
  <text x="48" y="128" font-family="Arial" font-size="13" fill="#374151">Sharpe Ratio</text>
  <text x="300" y="128" font-family="Arial" font-size="13" fill="#111827">0.90</text>
  <text x="48" y="156" font-family="Arial" font-size="13" fill="#374151">Std Dev</text>
  <text x="300" y="156" font-family="Arial" font-size="13" fill="#111827">18.80%</text>
  <text x="48" y="184" font-family="Arial" font-size="13" fill="#374151">Beta</text>
  <text x="300" y="184" font-family="Arial" font-size="13" fill="#111827">0.95</text>
  <text x="48" y="212" font-family="Arial" font-size="13" fill="#374151">Alpha</text>
  <text x="300" y="212" font-family="Arial" font-size="13" fill="#111827">0.10</text>

  <text x="444" y="96" font-family="Arial" font-size="16" fill="#111827">Capture (3Y)</text>
  <text x="444" y="128" font-family="Arial" font-size="13" fill="#374151">Up Capture</text>
  <text x="700" y="128" font-family="Arial" font-size="13" fill="#111827">104.5%</text>
  <text x="444" y="156" font-family="Arial" font-size="13" fill="#374151">Down Capture</text>
  <text x="700" y="156" font-family="Arial" font-size="13" fill="#111827">96.1%</text>

  <text x="840" y="96" font-family="Arial" font-size="16" fill="#111827">Fees & Other</text>
  <text x="840" y="128" font-family="Arial" font-size="13" fill="#374151">Expense Ratio</text>
  <text x="1096" y="128" font-family="Arial" font-size="13" fill="#111827">0.12%</text>
  <text x="840" y="156" font-family="Arial" font-size="13" fill="#374151">Manager Tenure (yrs)</text>
  <text x="1096" y="156" font-family="Arial" font-size="13" fill="#111827">1.27</text>

  <text x="24" y="620" font-size="12" font-family="Arial" fill="#6b7280">Illustrative screenshot export for docs. Actual UI is interactive; values are examples.</text>
</svg>

